<?xml version="1.0" standalone="no"?>
<!DOCTYPE svg PUBLIC "-//W3C//DTD SVG 20010904//EN"
 "http://www.w3.org/TR/2001/REC-SVG-20010904/DTD/svg10.dtd">
<svg version="1.0" xmlns="http://www.w3.org/2000/svg"
 width="300.000000pt" height="300.000000pt" viewBox="0 0 300.000000 300.000000"
 preserveAspectRatio="xMidYMid meet">
<metadata>
Created by potrace 1.11, written by Peter Selinger 2001-2013
</metadata>
<g transform="translate(0.000000,300.000000) scale(0.100000,-0.100000)"
fill="#000000" stroke="none">
<path d="M438 2593 c-14 -4 -16 -18 -13 -111 1 -59 -3 -150 -11 -202 -13 -90
-19 -291 -10 -335 3 -11 5 -34 5 -51 1 -31 2 -31 39 -24 61 11 299 -1 325 -17
9 -6 285 -5 312 1 11 2 27 5 36 5 14 1 16 7 9 37 -8 34 -5 218 3 259 8 35 19
217 19 307 -1 116 -7 127 -69 117 -65 -10 -277 -8 -322 3 -39 9 -296 19 -323
11z m272 -107 c73 -18 225 -23 293 -11 35 7 36 6 43 -30 7 -37 0 -187 -14
-285 -4 -30 -7 -87 -7 -127 l0 -72 -33 -6 c-50 -9 -190 -4 -257 11 -33 7 -97
11 -142 10 l-81 -2 -6 36 c-8 52 1 232 14 281 7 24 10 77 8 118 -3 73 -2 75
22 81 29 8 124 5 160 -4z"/>
<path d="M639 2384 c-13 -4 -16 -22 -18 -87 -1 -45 -3 -107 -4 -137 -2 -30 -2
-62 0 -70 4 -15 51 -20 238 -24 l70 -1 2 35 c1 19 5 74 9 121 4 47 4 101 0
120 l-6 34 -72 1 c-40 0 -102 4 -138 7 -36 3 -72 4 -81 1z"/>
<path d="M1887 2593 c-23 -4 -27 -8 -21 -25 12 -40 11 -175 -3 -278 -16 -115
-19 -347 -5 -395 6 -18 15 -29 23 -26 28 7 184 7 230 0 139 -22 330 -28 424
-14 l40 6 -1 117 c-2 64 2 137 6 162 13 64 24 348 16 402 l-7 45 -47 -8 c-52
-8 -307 -4 -362 5 -48 9 -258 15 -293 9z m248 -104 c28 -5 65 -11 83 -14 50
-8 182 -9 228 -1 40 7 42 6 47 -21 6 -33 1 -202 -8 -264 -12 -76 -14 -93 -16
-150 -1 -31 1 -61 4 -66 17 -27 -157 -31 -289 -7 -55 10 -114 13 -155 10 l-67
-6 -6 36 c-10 53 -5 189 11 268 8 39 12 102 11 140 -3 67 -2 70 22 77 36 9 78
9 135 -2z"/>
<path d="M2076 2382 c-2 -4 -5 -48 -6 -97 -1 -50 -3 -117 -3 -149 l-2 -59 70
-3 c39 -1 98 -6 132 -10 91 -10 109 -3 110 43 0 21 3 81 7 133 8 137 9 135
-77 136 -40 1 -107 4 -149 7 -42 4 -79 3 -82 -1z"/>
<path d="M1269 2564 c-23 -24 -24 -33 -26 -162 -1 -75 -5 -178 -8 -227 -6 -83
-5 -92 14 -109 18 -16 26 -17 65 -7 63 16 206 14 247 -3 64 -27 71 -41 90
-176 10 -72 29 -120 49 -120 5 0 19 14 31 32 20 28 23 46 26 149 3 130 8 119
-65 134 -33 7 -33 8 -28 48 3 22 7 41 8 41 2 1 17 6 33 12 21 7 33 19 42 44
14 43 0 58 -52 55 -29 -1 -35 2 -35 19 0 48 11 62 55 74 l44 12 -3 86 c-2 77
-4 89 -25 106 -22 17 -25 17 -42 2 -10 -9 -24 -32 -31 -50 -7 -19 -19 -36 -27
-38 -9 -2 -75 -4 -148 -4 l-131 1 -11 43 c-15 58 -40 72 -72 38z m265 -295 c2
-2 7 -25 10 -51 l7 -48 -50 0 c-57 0 -59 5 -41 71 9 33 13 36 41 34 16 -1 31
-4 33 -6z"/>
<path d="M1268 1943 c-26 -29 -44 -136 -30 -169 11 -22 17 -25 40 -21 39 8 51
-3 58 -54 l6 -44 -43 0 c-43 0 -43 1 -52 45 -11 53 -18 59 -72 58 -53 0 -110
-24 -130 -54 -15 -23 -15 -25 10 -34 15 -6 35 -10 46 -10 21 0 21 0 24 -45 4
-69 24 -89 75 -74 14 4 49 7 78 8 l52 1 0 -38 c0 -55 23 -83 63 -77 101 16
142 15 177 -3 53 -29 72 -61 72 -121 -1 -73 19 -93 81 -79 25 5 63 8 84 6 34
-3 38 -6 41 -33 5 -61 12 -73 40 -80 16 -3 39 -2 53 3 13 5 45 7 71 4 l47 -4
-46 -61 c-25 -34 -47 -64 -50 -67 -2 -3 -11 3 -18 13 -36 49 -90 -24 -81 -108
6 -52 -9 -88 -36 -84 -7 1 -19 1 -25 0 -17 -1 -43 -54 -43 -87 0 -15 -9 -47
-21 -71 -18 -38 -25 -43 -53 -43 l-33 0 3 75 c3 102 7 111 53 119 46 7 51 20
47 118 -4 110 -51 133 -95 46 -23 -46 -26 -48 -68 -48 l-43 0 0 199 c0 126 -4
202 -10 206 -6 4 -48 9 -93 11 -74 5 -85 3 -101 -15 -12 -14 -16 -28 -12 -45
5 -21 2 -25 -27 -32 -17 -4 -35 -7 -38 -6 -4 0 -16 -9 -28 -22 -17 -18 -20
-28 -13 -47 5 -13 7 -45 5 -70 -3 -27 0 -57 7 -69 13 -24 4 -23 158 -5 23 2
34 -7 40 -35 5 -23 4 -123 -1 -145 -3 -11 -6 -22 -6 -25 -1 -3 -17 -14 -36
-24 -19 -11 -35 -23 -35 -27 0 -4 -15 -17 -34 -28 -18 -12 -45 -33 -60 -48
-25 -25 -27 -33 -23 -83 6 -68 113 -380 149 -437 26 -40 30 -42 92 -48 81 -9
147 0 178 24 13 10 59 71 102 135 44 64 85 116 90 117 6 0 70 2 141 3 72 0
135 5 142 9 20 12 37 78 23 87 -6 4 -63 6 -126 6 -63 -1 -114 0 -114 3 0 2 14
26 32 54 l31 49 81 -4 c45 -3 87 -3 94 -1 8 3 12 30 12 89 0 70 -3 87 -19 103
-20 20 -20 20 1 46 l20 26 24 -26 c29 -32 54 -29 71 7 17 34 9 54 -29 64 l-31
9 42 53 c36 45 46 52 76 52 28 0 36 -4 40 -22 9 -45 14 -94 16 -171 1 -60 6
-84 21 -103 l20 -25 24 28 c13 15 27 36 30 46 4 11 16 17 37 17 18 0 42 6 53
14 19 13 19 25 19 242 -1 238 -7 274 -43 274 -10 0 -24 -6 -31 -12 -8 -7 42
56 110 140 140 173 194 254 186 277 -8 19 -77 20 -164 2 -47 -10 -63 -11 -67
-2 -3 9 -61 12 -208 12 -214 0 -246 -5 -283 -47 -19 -21 -19 -22 0 -36 10 -8
33 -14 51 -14 28 0 32 -4 38 -34 4 -19 15 -44 24 -57 l18 -21 27 32 c15 17 27
40 27 51 0 23 -7 21 102 23 57 1 84 -2 79 -9 -4 -5 -45 -58 -92 -117 -60 -78
-86 -103 -92 -93 -5 10 -28 14 -88 13 -44 0 -85 4 -90 9 -5 5 -12 41 -16 79
-10 123 -57 152 -101 61 -22 -46 -25 -48 -60 -45 -36 3 -37 5 -46 51 -4 26
-11 47 -15 48 -40 5 -82 4 -107 -3 -38 -10 -84 -45 -84 -63 0 -13 54 -38 63
-28 9 8 24 -29 30 -69 4 -34 3 -37 -22 -40 -14 -2 -38 -1 -53 1 -23 3 -26 7
-24 35 4 45 -8 62 -57 76 -44 12 -44 12 -36 47 7 35 26 56 40 48 11 -8 39 30
45 62 5 26 2 32 -15 38 -11 3 -25 4 -30 1 -11 -7 -41 20 -41 37 -2 55 -21 151
-32 158 -29 19 -48 8 -73 -41 -24 -47 -28 -50 -63 -50 -37 0 -39 2 -53 48 -16
52 -43 66 -71 35z m682 -495 c0 -2 3 -26 6 -53 l6 -51 -49 1 c-47 0 -48 1 -46
30 5 65 11 75 48 75 19 0 35 -1 35 -2z m260 -108 c0 -4 -31 -48 -70 -100 -65
-87 -91 -118 -77 -95 3 6 7 42 8 80 3 92 8 113 27 117 30 6 112 4 112 -2z
m280 -57 c-8 -24 -18 -93 -19 -130 -1 -15 -77 -18 -86 -3 -5 8 100 160 111
160 1 0 -1 -12 -6 -27z"/>
<path d="M521 1749 c-16 -17 -20 -31 -16 -50 6 -24 3 -27 -32 -34 -53 -9 -84
-40 -73 -71 5 -13 8 -43 6 -66 -2 -24 0 -54 5 -67 8 -19 14 -22 37 -18 36 7
52 -3 58 -39 2 -16 7 -35 9 -41 2 -7 -13 -22 -35 -33 -21 -11 -46 -30 -54 -42
-15 -20 -14 -23 2 -32 10 -7 151 -11 361 -13 189 -1 360 -4 381 -7 55 -7 70 8
71 74 2 75 -9 118 -32 131 -26 14 -46 -3 -69 -57 -16 -37 -21 -40 -53 -39 -20
0 -40 4 -44 9 -8 8 -9 13 -12 41 -2 23 -39 55 -56 49 -9 -4 -27 -28 -40 -54
-24 -46 -36 -53 -81 -44 -15 3 -24 14 -28 38 -4 18 -14 41 -24 49 -16 15 -20
15 -40 1 -12 -8 -29 -30 -36 -49 -15 -34 -34 -45 -76 -42 -24 2 -25 4 -24 77
1 131 -4 125 107 128 l97 3 0 -30 c0 -16 8 -39 19 -52 17 -21 21 -22 36 -9 32
26 45 76 45 169 0 80 -3 93 -22 111 -12 11 -25 20 -28 20 -11 0 -37 -33 -54
-71 -14 -29 -22 -36 -44 -35 -38 2 -52 13 -52 42 0 43 -16 62 -54 62 -19 0
-57 3 -84 7 -44 6 -52 4 -71 -16z"/>
<path d="M1864 1746 c-10 -26 11 -63 46 -81 l30 -16 17 36 c15 32 15 37 2 51
-9 8 -32 17 -52 21 -29 4 -38 2 -43 -11z"/>
<path d="M1036 1535 c-8 -22 12 -61 40 -76 20 -10 27 -10 44 6 23 21 22 61 -1
76 -23 14 -76 11 -83 -6z"/>
<path d="M525 1152 c-16 -1 -49 -5 -72 -8 -41 -5 -41 -5 -32 -36 8 -31 6 -211
-5 -258 -14 -68 -22 -283 -12 -360 2 -14 4 -37 5 -52 1 -25 3 -26 30 -18 32 9
212 7 271 -3 97 -17 263 -23 340 -13 14 2 39 4 56 5 31 1 32 2 24 38 -9 37 -6
229 4 261 18 60 23 380 7 410 -9 17 -17 20 -49 14 -52 -9 -253 -8 -337 1 -161
19 -202 22 -230 19z m195 -116 c44 -8 126 -13 197 -12 l123 2 6 -34 c7 -35 -1
-189 -14 -277 -4 -27 -7 -85 -7 -127 l0 -77 -46 -6 c-50 -7 -206 1 -254 13
-16 4 -71 7 -122 7 l-91 -1 -5 31 c-7 40 0 232 10 270 4 17 8 71 8 122 0 85 2
93 20 95 53 9 106 7 175 -6z"/>
<path d="M634 933 c-6 -4 -11 -35 -11 -68 0 -33 -2 -89 -3 -125 -6 -118 -5
-120 36 -113 20 3 73 0 119 -7 45 -7 98 -10 117 -6 34 6 34 6 38 69 1 34 3
102 4 152 l1 90 -70 1 c-38 0 -104 4 -145 8 -41 4 -80 4 -86 -1z"/>
<path d="M1244 916 c-8 -21 23 -74 47 -81 25 -8 48 11 54 47 4 19 -1 27 -21
36 -34 16 -73 15 -80 -2z"/>
<path d="M2490 715 c-17 -20 -1 -58 35 -81 22 -15 28 -15 40 -3 7 8 17 26 20
41 6 24 3 29 -30 42 -46 20 -50 20 -65 1z"/>
<path d="M2408 603 c-36 -40 -51 -170 -23 -193 11 -9 30 -10 63 -5 26 4 58 8
71 9 31 3 63 43 59 75 -3 23 -8 26 -43 26 -38 0 -41 3 -53 40 -22 66 -45 81
-74 48z"/>
</g>
</svg>
